<svg xmlns="http://www.w3.org/2000/svg" viewBox="0 0 32 13"><g id="Page-1" fill="none" fill-rule="evenodd"><g id="shutterstock_671237983-[преобразованный]" fill-rule="nonzero"><g id="cloud"><g id="Group"><path id="Shape" fill="#FFF" d="M27.5 5.2c-.6 0-1.2.2-1.7.5-.2-2.6-2.4-4.7-5.1-4.7-2.7 0-4.8 2-5.1 4.6-.5-.3-1-.4-1.5-.4-1.4 0-2.6 1-2.9 2.3-.3-.2-.7-.4-1.2-.4H3.9c-1.1 0-2.1.9-2.1 2.1 0 1.1.9 2.1 2.1 2.1h23.7c1.7 0 3-1.4 3-3-.1-1.7-1.5-3.1-3.1-3.1z"/><path id="Shape" fill="#F9DAAD" d="M27.5 12.3H3.8C2.1 12.3.7 10.9.7 9.2c0-1.7 1.4-3.1 3.1-3.1h6.1c.2 0 .4 0 .6.1.8-1.4 2.6-2.3 4.3-1.9.8-2.5 3.1-4.3 5.8-4.3 2.7 0 5 1.8 5.8 4.3.3-.1.6-.1 1-.1 2.2 0 4 1.8 4 4 .1 2.3-1.7 4.1-3.9 4.1zM3.8 8.2c-.6 0-1.1.5-1.1 1.1 0 .6.5 1.1 1.1 1.1h23.7c1.1 0 2-.9 2-2s-.9-2-2-2c-.4 0-.8.1-1.1.4-.3.2-.7.2-1 .1-.3-.2-.5-.5-.6-.8-.2-2.1-2-3.8-4.1-3.8-2.1 0-3.9 1.6-4.1 3.7 0 .3-.2.6-.5.8-.3.2-.7.1-1 0-1.2-.7-2.7 0-3 1.3-.1.3-.3.6-.6.7-.3.1-.7.1-.9-.1-.2-.1-.4-.2-.6-.2H3.8v-.3z"/></g><g id="Group"><path id="Shape" fill="#FFF" d="M21.2 5.7c-1.5 0-2.6 1.1-2.8 2.5-.3-.3-.8-.5-1.3-.5-1 0-1.8.8-1.8 1.8s.8 1.8 1.8 1.8h4c1.5 0 2.8-1.3 2.8-2.8.1-1.6-1.2-2.8-2.7-2.8z"/><path id="Shape" fill="#F9DAAD" d="M21.2 11.8h-4c-1.3 0-2.3-1-2.3-2.3 0-1.3 1-2.3 2.3-2.3.3 0 .6.1.9.2.5-1.3 1.7-2.2 3.1-2.2 1.8 0 3.3 1.5 3.3 3.3 0 1.8-1.5 3.3-3.3 3.3zm-4.1-3.6c-.7 0-1.3.6-1.3 1.3 0 .7.6 1.3 1.3 1.3h4c1.3 0 2.3-1 2.3-2.3 0-1.3-1-2.3-2.3-2.3-1.2 0-2.2.9-2.3 2.1 0 .2-.1.4-.3.4-.2.1-.4 0-.5-.1-.2-.3-.5-.4-.9-.4z"/></g></g></g></g></svg>