<svg xmlns="http://www.w3.org/2000/svg" viewBox="0 0 46 19"><g id="Page-1" fill="none" fill-rule="evenodd"><g id="shutterstock_671237983-[преобразованный]" fill-rule="nonzero"><g id="cloud"><g id="Group"><path id="Shape" fill="#FFF" d="M42.2 13.7H31.8c-.4 0-.9-2.6-4.5-2.6-.2 0-.4 0-.6.1-.6-2.1-2.6-3.7-4.9-3.7h-.1c-1-3.3-4-5.6-7.6-5.6-4.4 0-8 3.6-8 8 0 .5.1 1.1.2 1.6-.4-.2-.9-.3-1.4-.3-1.9 0-3.4 1.5-3.4 3.4S3 18 4.9 18h37.3c1.1 0 2.1-.9 2.1-2.1-.1-1.2-1-2.2-2.1-2.2z"/><path id="Shape" fill="#F9DAAD" d="M42.2 18.9H4.9c-2.4 0-4.4-2-4.4-4.4 0-2.5 2.1-4.5 4.6-4.3v-.3c0-5 4-9 9-9 3.7 0 7 2.2 8.4 5.7 2.2.2 4.1 1.6 4.9 3.6 3.1 0 4.3 1.8 4.8 2.6h10c1.7 0 3.1 1.4 3.1 3.1-.1 1.6-1.4 3-3.1 3zM4.8 12.2c-1.3 0-2.4 1.1-2.4 2.4 0 1.3 1.1 2.4 2.4 2.4h37.3c.6 0 1.1-.5 1.1-1.1 0-.6-.5-1.1-1.1-1.1H31.7c-.6 0-1-.5-1.2-.9-.5-.7-1.2-1.7-3.3-1.7h-.4c-.5.1-1-.2-1.1-.7-.5-1.8-2.1-3-3.9-3h-.1c-.4 0-.8-.3-1-.7-.9-2.9-3.6-4.9-6.7-4.9-3.9 0-7 3.1-7 7 0 .5 0 .9.1 1.4.1.4-.1.7-.4 1-.3.2-.7.3-1 .1-.2-.2-.5-.2-.9-.2z"/></g><g id="Group"><path id="Shape" fill="#FFF" d="M22.2 12.9c-.4 0-.8.1-1.1.3-.1-2.3-2-4.2-4.4-4.2-2.4 0-4.4 1.9-4.4 4.4-.4-.3-.9-.4-1.4-.4-1.4 0-2.5 1.1-2.5 2.5S9.5 18 10.9 18h11.4c1.4 0 2.5-1.1 2.5-2.5s-1.2-2.6-2.6-2.6z"/><path id="Shape" fill="#F9DAAD" d="M22.2 18.4H10.8c-1.6 0-3-1.3-3-3s1.3-3 3-3c.3 0 .7.1 1 .2.4-2.3 2.4-4.1 4.9-4.1 2.4 0 4.4 1.7 4.8 4 .2-.1.5-.1.7-.1 1.6 0 3 1.3 3 3s-1.4 3-3 3zm-11.4-5c-1.1 0-2 .9-2 2s.9 2 2 2h11.4c1.1 0 2-.9 2-2 0-1.4-1.5-2.4-2.9-1.7-.2.1-.3.1-.5 0-.1-.1-.2-.2-.3-.4-.1-2.1-1.8-3.7-3.9-3.7-2.1 0-3.9 1.7-3.9 3.9 0 .2-.1.4-.3.4-.2.1-.4.1-.5 0-.3-.4-.7-.5-1.1-.5z"/></g></g></g></g></svg>