<?xml version="1.0" standalone="no"?>
<!DOCTYPE svg PUBLIC "-//W3C//DTD SVG 20010904//EN"
 "http://www.w3.org/TR/2001/REC-SVG-20010904/DTD/svg10.dtd">
<svg version="1.0" xmlns="http://www.w3.org/2000/svg"
 width="1000.000000pt" height="1000.000000pt" viewBox="0 0 1000.000000 1000.000000"
 preserveAspectRatio="xMidYMid meet">
<metadata>
Created by potrace 1.11, written by Peter Selinger 2001-2013
</metadata>
<g transform="translate(0.000000,1000.000000) scale(0.100000,-0.100000)"
fill="#000000" stroke="none">
<path d="M3394 8269 c-66 -8 -162 -59 -211 -113 -33 -35 -103 -138 -103 -150
0 -2 -17 -35 -38 -73 -21 -37 -59 -106 -84 -153 -44 -83 -83 -155 -138 -255
-15 -27 -46 -86 -70 -130 -24 -44 -54 -100 -68 -125 -13 -25 -40 -74 -60 -110
-19 -36 -59 -109 -88 -163 -30 -53 -54 -99 -54 -102 0 -2 -15 -30 -34 -62 -31
-54 -53 -95 -157 -290 -23 -43 -49 -91 -59 -108 -10 -16 -77 -140 -150 -275
-73 -135 -151 -279 -173 -320 -22 -41 -49 -90 -59 -108 -10 -19 -39 -73 -65
-120 -25 -48 -53 -100 -63 -117 -10 -16 -35 -64 -58 -105 -35 -66 -399 -739
-457 -845 -12 -22 -41 -76 -65 -120 -23 -44 -69 -127 -100 -185 -31 -58 -76
-141 -100 -185 -72 -135 -75 -140 -80 -145 -3 -3 -15 -25 -27 -50 -21 -43 -37
-73 -178 -330 -92 -169 -136 -249 -163 -300 -13 -25 -38 -72 -56 -105 -18 -33
-48 -89 -67 -123 -45 -84 -74 -138 -134 -247 -79 -146 -97 -185 -121 -275 -44
-166 -19 -328 63 -400 74 -65 64 -64 538 -65 399 0 434 1 480 19 99 38 196
113 267 206 23 30 168 284 168 294 0 2 24 46 53 97 29 52 63 114 76 139 13 25
31 59 40 75 54 99 113 207 137 255 16 30 31 57 34 60 3 3 18 30 34 60 27 53
59 111 335 618 66 123 121 225 121 228 0 2 10 21 23 42 13 20 47 81 76 135 50
95 206 381 261 482 15 28 42 77 60 110 85 157 105 194 130 240 15 28 41 75 57
105 63 115 167 308 201 370 19 36 62 115 95 175 33 61 72 133 87 160 15 28 47
86 70 130 23 44 46 85 50 90 4 6 32 57 63 115 68 130 99 188 142 265 73 131
106 193 142 263 21 39 40 72 43 72 3 0 16 -19 28 -42 11 -24 40 -77 62 -118
23 -41 62 -113 87 -160 25 -47 58 -107 73 -135 15 -27 51 -95 80 -150 29 -55
56 -104 60 -110 4 -5 33 -59 65 -120 63 -119 99 -187 150 -280 18 -33 108
-199 200 -370 92 -170 172 -316 177 -322 6 -7 7 -13 4 -13 -4 0 1 -12 12 -27
17 -25 44 -76 165 -303 22 -41 50 -93 62 -115 12 -22 100 -184 195 -360 95
-176 189 -351 210 -390 21 -38 52 -96 69 -129 82 -152 69 -314 -33 -408 -66
-61 -86 -63 -569 -63 l-436 0 -45 -95 c-25 -52 -77 -162 -116 -245 -40 -82
-85 -177 -100 -210 -27 -57 -65 -137 -181 -382 -63 -133 -119 -254 -119 -259
0 -1 705 -2 1568 -1 l1567 2 84 29 c147 52 249 133 329 263 17 29 29 53 26 53
-4 0 -1 7 6 15 20 24 47 146 49 227 4 146 -35 280 -130 445 -27 46 -49 86 -49
88 0 3 -33 64 -74 137 -40 73 -89 162 -108 198 -46 85 -89 164 -120 220 -14
25 -39 70 -55 100 -17 30 -44 80 -60 110 -17 30 -45 82 -63 115 -80 148 -103
191 -110 200 -4 6 -28 48 -52 95 -25 47 -81 150 -125 230 -44 80 -96 174 -115
210 -19 36 -88 162 -153 280 -65 118 -134 244 -153 280 -19 36 -56 103 -82
150 -26 47 -64 117 -85 155 -21 39 -61 113 -90 165 -88 158 -345 630 -388 710
-22 41 -47 89 -57 105 -10 17 -31 55 -48 85 -16 30 -56 102 -87 160 -32 58
-72 132 -90 165 -17 33 -56 105 -87 160 -30 55 -69 126 -87 158 -17 31 -45 83
-62 115 -18 31 -57 102 -87 157 -30 55 -71 129 -90 165 -154 288 -195 354
-249 407 -54 53 -109 84 -173 99 -42 9 -1093 12 -1166 3z"/>
<path d="M5195 8272 c-2 -2 11 -29 29 -60 18 -32 49 -86 68 -122 19 -36 115
-211 213 -390 98 -179 188 -343 199 -365 12 -22 48 -88 80 -146 l58 -106 677
0 c724 0 721 0 788 -51 43 -32 82 -114 86 -181 7 -110 -1 -128 -263 -611 -31
-58 -76 -141 -100 -185 -124 -230 -175 -326 -205 -380 -18 -33 -49 -91 -69
-128 l-37 -68 41 -75 c22 -41 62 -114 89 -162 54 -97 104 -190 164 -302 22
-41 43 -79 47 -85 4 -5 23 -39 42 -75 142 -263 354 -651 370 -678 24 -39 21
-41 85 78 22 41 93 172 158 290 288 526 470 860 503 920 19 36 42 79 52 95 10
17 37 66 60 110 24 44 79 145 123 225 44 80 93 170 109 200 17 30 43 78 58
105 70 126 85 154 118 215 19 36 42 79 52 95 9 17 39 71 65 120 26 50 55 104
65 120 9 17 32 57 50 90 18 33 48 87 66 120 18 33 46 85 62 115 16 30 40 73
52 95 13 22 38 69 58 105 19 36 45 83 58 106 13 22 35 71 49 110 92 253 44
505 -130 679 -92 92 -204 151 -326 171 -42 7 -3657 13 -3664 6z"/>
<path d="M3875 5623 c-180 -333 -221 -409 -259 -478 -21 -38 -55 -99 -74 -135
-62 -115 -162 -297 -201 -366 -16 -28 -308 -568 -351 -649 -20 -38 -48 -90
-62 -115 -14 -25 -44 -81 -68 -125 -44 -82 -86 -160 -125 -230 -310 -565 -516
-964 -532 -1028 -27 -115 -31 -179 -19 -261 13 -90 70 -167 151 -203 36 -16
80 -18 458 -20 385 -1 423 0 473 17 153 53 267 160 359 337 14 26 30 55 35 63
5 8 66 121 135 250 69 129 131 244 137 255 14 26 43 79 108 200 29 55 76 141
103 190 27 50 72 133 100 185 28 52 63 118 78 145 15 28 40 73 54 100 15 28
30 53 34 58 4 4 147 8 319 9 l311 1 -39 71 c-22 39 -53 98 -71 131 -17 33 -45
85 -62 115 -50 92 -81 149 -162 300 -132 246 -195 363 -318 590 -88 162 -107
198 -148 275 -23 44 -45 85 -49 90 -4 6 -36 64 -71 130 -119 226 -138 260
-146 262 -4 1 -48 -72 -98 -164z"/>
<path d="M8395 4793 c-39 -70 -86 -156 -106 -192 -66 -123 -133 -246 -161
-296 -15 -27 -36 -66 -46 -85 -47 -89 -116 -216 -122 -225 -4 -5 -28 -48 -53
-95 -50 -95 -85 -160 -128 -236 -16 -28 -29 -56 -29 -62 0 -6 37 -78 81 -159
45 -81 97 -177 117 -213 19 -36 51 -94 72 -130 20 -36 59 -105 85 -155 26 -49
65 -120 86 -157 22 -36 39 -69 39 -71 0 -2 25 -49 56 -103 31 -55 77 -137 102
-184 112 -210 198 -308 327 -373 84 -41 129 -45 540 -45 434 -1 450 1 525 65
68 59 85 108 85 248 -1 174 -20 223 -205 540 -126 214 -189 323 -207 355 -11
19 -67 116 -125 215 -254 433 -603 1033 -624 1070 -12 22 -66 117 -121 210
-55 94 -104 178 -109 187 -8 15 -23 -6 -79 -109z"/>
</g>
</svg>
